<svg width="1678" height="605" viewBox="0 0 1678 605" fill="none" xmlns="http://www.w3.org/2000/svg">
<rect width="1678" height="605" fill="#E9E9E9"/>
<rect x="20.5" y="20.5" width="720" height="491" fill="#212525" fill-opacity="0.05"/>
<rect x="20.5" y="20.5" width="720" height="491" stroke="#212525"/>
<rect x="34.5" y="34.5" width="346.003" height="246.981" fill="#786823" fill-opacity="0.2" stroke="#786823"/>
<rect x="34.5" y="300.115" width="692" height="197.385" fill="#1342FF" fill-opacity="0.2" stroke="#1342FF"/>
<rect x="397.596" y="34.5" width="155.906" height="113.622" fill="#212525" fill-opacity="0.2" stroke="#212525"/>
<rect x="570.594" y="34.5" width="155.906" height="113.622" fill="#212525" fill-opacity="0.2" stroke="#212525"/>
<rect x="397.596" y="166.756" width="155.906" height="114.724" fill="#212525" fill-opacity="0.2" stroke="#212525"/>
<rect x="570.594" y="166.756" width="155.906" height="114.724" fill="#212525" fill-opacity="0.2" stroke="#212525"/>
<path d="M160.5 156.707C160.5 151.931 162.396 149.243 165.972 149.243C168.876 149.243 170.508 150.923 170.916 153.995L169.308 154.379C168.828 151.835 167.892 150.755 165.948 150.755C163.212 150.755 162.228 152.939 162.228 156.707C162.228 160.571 163.236 162.683 165.9 162.683C168.06 162.683 168.948 161.555 169.428 158.963L171.06 159.323C170.604 162.443 169.02 164.171 165.876 164.171C162.228 164.171 160.5 161.483 160.5 156.707ZM174.323 156.683C174.323 151.907 176.339 149.243 179.939 149.243C183.515 149.243 185.531 151.907 185.531 156.683C185.531 161.483 183.515 164.171 179.939 164.171C176.339 164.171 174.323 161.483 174.323 156.683ZM176.051 156.683C176.051 160.691 177.323 162.659 179.939 162.659C182.531 162.659 183.803 160.691 183.803 156.683C183.803 152.699 182.531 150.755 179.939 150.755C177.323 150.755 176.051 152.699 176.051 156.683ZM189.25 163.907V149.507H191.722L194.842 156.275C195.754 158.339 196.546 160.763 196.954 162.371L197.458 162.347C197.242 160.091 197.002 156.419 197.002 153.611V149.507H198.682V163.907H196.306L192.85 156.203C192.154 154.595 191.506 152.627 191.026 150.971L190.546 150.995C190.738 153.419 190.93 157.091 190.93 159.803V163.907H189.25ZM207.153 163.907V151.019H202.473V149.507H213.537V151.019H208.881V163.907H207.153ZM217.64 163.907V149.507H222.368C225.608 149.507 227 151.019 227 153.755C227 155.963 225.968 157.451 224.072 158.003L227.624 163.427V163.907H225.728L222.32 158.219H219.368V163.907H217.64ZM219.368 156.803H222.2C224.192 156.803 225.272 155.819 225.272 153.779C225.272 151.811 224.504 150.947 222.176 150.947H219.368V156.803ZM230.479 156.683C230.479 151.907 232.495 149.243 236.095 149.243C239.671 149.243 241.687 151.907 241.687 156.683C241.687 161.483 239.671 164.171 236.095 164.171C232.495 164.171 230.479 161.483 230.479 156.683ZM232.207 156.683C232.207 160.691 233.479 162.659 236.095 162.659C238.687 162.659 239.959 160.691 239.959 156.683C239.959 152.699 238.687 150.755 236.095 150.755C233.479 150.755 232.207 152.699 232.207 156.683ZM246.366 163.907V149.507H248.118V162.395H255.558V163.907H246.366Z" fill="#786823"/>
<path d="M347.537 398.973C347.537 394.197 349.433 391.509 353.009 391.509C355.913 391.509 357.545 393.189 357.953 396.261L356.345 396.645C355.865 394.101 354.929 393.021 352.985 393.021C350.249 393.021 349.265 395.205 349.265 398.973C349.265 402.837 350.273 404.949 352.937 404.949C355.097 404.949 355.985 403.821 356.465 401.229L358.097 401.589C357.641 404.709 356.057 406.437 352.913 406.437C349.265 406.437 347.537 403.749 347.537 398.973ZM361 406.173L365.632 391.773H368.296L372.928 406.173H371.104L369.832 401.997H364.048L362.776 406.173H361ZM364.456 400.581H369.4L368.824 398.685C368.272 396.933 367.744 394.797 367.408 393.237H366.52C366.112 394.821 365.56 396.909 365.032 398.685L364.456 400.581ZM375.615 398.973C375.615 394.197 377.511 391.509 381.087 391.509C383.991 391.509 385.623 393.189 386.031 396.261L384.423 396.645C383.943 394.101 383.007 393.021 381.063 393.021C378.327 393.021 377.343 395.205 377.343 398.973C377.343 402.837 378.351 404.949 381.015 404.949C383.175 404.949 384.063 403.821 384.543 401.229L386.175 401.589C385.719 404.709 384.135 406.437 380.991 406.437C377.343 406.437 375.615 403.749 375.615 398.973ZM390.158 406.173V391.773H391.91V398.253H398.198V391.773H399.926V406.173H398.198V399.765H391.91V406.173H390.158ZM404.87 406.173V391.773H413.87V393.237H406.598V398.085H413.03V399.573H406.598V404.709H413.822V406.173H404.87Z" fill="#1342FF"/>
<path d="M455.546 96.6772L460.178 82.2772H462.842L467.474 96.6772H465.65L464.378 92.5012H458.594L457.322 96.6772H455.546ZM459.002 91.0852H463.946L463.37 89.1892C462.818 87.4372 462.29 85.3012 461.954 83.7412H461.066C460.658 85.3252 460.106 87.4132 459.578 89.1892L459.002 91.0852ZM471.793 96.6772V82.2772H473.545V95.1652H480.985V96.6772H471.793ZM489.6 96.9412C486.384 96.9412 484.704 94.9972 484.704 91.3252V82.2772H486.432V91.1812C486.432 93.6292 487.104 95.4532 489.6 95.4532C491.976 95.4532 492.744 93.9412 492.744 91.3012V82.2772H494.472V91.3252C494.472 94.9972 492.792 96.9412 489.6 96.9412Z" fill="#212525"/>
<path d="M628.545 96.6772L633.177 82.2772H635.841L640.473 96.6772H638.649L637.377 92.5012H631.593L630.321 96.6772H628.545ZM632.001 91.0852H636.945L636.369 89.1892C635.817 87.4372 635.289 85.3012 634.953 83.7412H634.065C633.657 85.3252 633.105 87.4132 632.577 89.1892L632.001 91.0852ZM644.792 96.6772V82.2772H646.544V95.1652H653.984V96.6772H644.792ZM662.599 96.9412C659.383 96.9412 657.703 94.9972 657.703 91.3252V82.2772H659.431V91.1812C659.431 93.6292 660.103 95.4532 662.599 95.4532C664.975 95.4532 665.743 93.9412 665.743 91.3012V82.2772H667.471V91.3252C667.471 94.9972 665.791 96.9412 662.599 96.9412Z" fill="#212525"/>
<path d="M628.545 230.036L633.177 215.636H635.841L640.473 230.036H638.649L637.377 225.86H631.593L630.321 230.036H628.545ZM632.001 224.444H636.945L636.369 222.548C635.817 220.796 635.289 218.66 634.953 217.1H634.065C633.657 218.684 633.105 220.772 632.577 222.548L632.001 224.444ZM644.792 230.036V215.636H646.544V228.524H653.984V230.036H644.792ZM662.599 230.3C659.383 230.3 657.703 228.356 657.703 224.684V215.636H659.431V224.54C659.431 226.988 660.103 228.812 662.599 228.812C664.975 228.812 665.743 227.3 665.743 224.66V215.636H667.471V224.684C667.471 228.356 665.791 230.3 662.599 230.3Z" fill="#212525"/>
<path d="M455.546 230.036L460.178 215.636H462.842L467.474 230.036H465.65L464.378 225.86H458.594L457.322 230.036H455.546ZM459.002 224.444H463.946L463.37 222.548C462.818 220.796 462.29 218.66 461.954 217.1H461.066C460.658 218.684 460.106 220.772 459.578 222.548L459.002 224.444ZM471.793 230.036V215.636H473.545V228.524H480.985V230.036H471.793ZM489.6 230.3C486.384 230.3 484.704 228.356 484.704 224.684V215.636H486.432V224.54C486.432 226.988 487.104 228.812 489.6 228.812C491.976 228.812 492.744 227.3 492.744 224.66V215.636H494.472V224.684C494.472 228.356 492.792 230.3 489.6 230.3Z" fill="#212525"/>
<path d="M348.122 559C348.122 551.04 351.282 546.56 357.242 546.56C362.082 546.56 364.802 549.36 365.482 554.48L362.802 555.12C362.002 550.88 360.442 549.08 357.202 549.08C352.642 549.08 351.002 552.72 351.002 559C351.002 565.44 352.682 568.96 357.122 568.96C360.722 568.96 362.202 567.08 363.002 562.76L365.722 563.36C364.962 568.56 362.322 571.44 357.082 571.44C351.002 571.44 348.122 566.96 348.122 559ZM373.281 571V547H381.641C387.001 547 389.841 550.12 389.841 554.76C389.841 559.16 386.961 562.48 381.721 562.48H376.201V571H373.281ZM376.201 560.16H381.401C385.361 560.16 387.041 558 387.041 554.8C387.041 551.6 385.601 549.44 381.361 549.44H376.201V560.16ZM403.919 571.44C398.559 571.44 395.759 568.2 395.759 562.08V547H398.639V561.84C398.639 565.92 399.759 568.96 403.919 568.96C407.879 568.96 409.159 566.44 409.159 562.04V547H412.039V562.08C412.039 568.2 409.239 571.44 403.919 571.44Z" fill="#212525"/>
<rect x="781.5" y="20.5" width="876" height="487" fill="#212525" fill-opacity="0.05"/>
<rect x="781.5" y="20.5" width="876" height="487" stroke="#212525"/>
<rect x="789.5" y="28.5" width="40" height="29" fill="#786823" fill-opacity="0.3" stroke="#786823"/>
<rect x="789.5" y="62.5" width="40" height="29" fill="#1342FF" fill-opacity="0.3" stroke="#1342FF"/>
<rect x="789.5" y="96.5" width="40" height="29" fill="#786823" fill-opacity="0.3" stroke="#786823"/>
<rect x="789.5" y="130.5" width="40" height="29" fill="#1342FF" fill-opacity="0.3" stroke="#1342FF"/>
<rect x="789.5" y="164.5" width="40" height="29" fill="#786823" fill-opacity="0.3" stroke="#786823"/>
<rect x="789.5" y="198.5" width="40" height="29" fill="#1342FF" fill-opacity="0.3" stroke="#1342FF"/>
<rect x="789.5" y="232.5" width="40" height="29" fill="#786823" fill-opacity="0.3" stroke="#786823"/>
<rect x="789.5" y="266.5" width="40" height="29" fill="#1342FF" fill-opacity="0.3" stroke="#1342FF"/>
<rect x="789.5" y="300.5" width="40" height="29" fill="#786823" fill-opacity="0.3" stroke="#786823"/>
<rect x="789.5" y="334.5" width="40" height="29" fill="#1342FF" fill-opacity="0.3" stroke="#1342FF"/>
<rect x="789.5" y="368.5" width="40" height="29" fill="#786823" fill-opacity="0.3" stroke="#786823"/>
<rect x="789.5" y="402.5" width="40" height="29" fill="#1342FF" fill-opacity="0.3" stroke="#1342FF"/>
<rect x="789.5" y="436.5" width="40" height="29" fill="#786823" fill-opacity="0.3" stroke="#786823"/>
<rect x="789.5" y="470.5" width="40" height="29" fill="#1342FF" fill-opacity="0.3" stroke="#1342FF"/>
<rect x="838.5" y="28.5" width="63" height="63" fill="#212525" fill-opacity="0.3" stroke="#212525"/>
<rect x="906.5" y="28.5" width="63" height="63" fill="#212525" fill-opacity="0.3" stroke="#212525"/>
<rect x="974.5" y="28.5" width="63" height="63" fill="#212525" fill-opacity="0.3" stroke="#212525"/>
<rect x="1042.5" y="28.5" width="63" height="63" fill="#212525" fill-opacity="0.3" stroke="#212525"/>
<rect x="1110.5" y="28.5" width="63" height="63" fill="#212525" fill-opacity="0.3" stroke="#212525"/>
<rect x="1178.5" y="28.5" width="63" height="63" fill="#212525" fill-opacity="0.3" stroke="#212525"/>
<rect x="1246.5" y="28.5" width="63" height="63" fill="#212525" fill-opacity="0.3" stroke="#212525"/>
<rect x="1314.5" y="28.5" width="63" height="63" fill="#212525" fill-opacity="0.3" stroke="#212525"/>
<rect x="1382.5" y="28.5" width="63" height="63" fill="#212525" fill-opacity="0.3" stroke="#212525"/>
<rect x="1450.5" y="28.5" width="63" height="63" fill="#212525" fill-opacity="0.3" stroke="#212525"/>
<rect x="1518.5" y="28.5" width="63" height="63" fill="#212525" fill-opacity="0.3" stroke="#212525"/>
<rect x="1586.5" y="28.5" width="63" height="63" fill="#212525" fill-opacity="0.3" stroke="#212525"/>
<rect x="838.5" y="96.5" width="63" height="63" fill="#212525" fill-opacity="0.3" stroke="#212525"/>
<rect x="906.5" y="96.5" width="63" height="63" fill="#212525" fill-opacity="0.3" stroke="#212525"/>
<rect x="974.5" y="96.5" width="63" height="63" fill="#212525" fill-opacity="0.3" stroke="#212525"/>
<rect x="1042.5" y="96.5" width="63" height="63" fill="#212525" fill-opacity="0.3" stroke="#212525"/>
<rect x="1110.5" y="96.5" width="63" height="63" fill="#212525" fill-opacity="0.3" stroke="#212525"/>
<rect x="1178.5" y="96.5" width="63" height="63" fill="#212525" fill-opacity="0.3" stroke="#212525"/>
<rect x="1246.5" y="96.5" width="63" height="63" fill="#212525" fill-opacity="0.3" stroke="#212525"/>
<rect x="1314.5" y="96.5" width="63" height="63" fill="#212525" fill-opacity="0.3" stroke="#212525"/>
<rect x="1382.5" y="96.5" width="63" height="63" fill="#212525" fill-opacity="0.3" stroke="#212525"/>
<rect x="1450.5" y="96.5" width="63" height="63" fill="#212525" fill-opacity="0.3" stroke="#212525"/>
<rect x="1518.5" y="96.5" width="63" height="63" fill="#212525" fill-opacity="0.3" stroke="#212525"/>
<rect x="1586.5" y="96.5" width="63" height="63" fill="#212525" fill-opacity="0.3" stroke="#212525"/>
<rect x="838.5" y="164.5" width="63" height="63" fill="#212525" fill-opacity="0.3" stroke="#212525"/>
<rect x="906.5" y="164.5" width="63" height="63" fill="#212525" fill-opacity="0.3" stroke="#212525"/>
<rect x="974.5" y="164.5" width="63" height="63" fill="#212525" fill-opacity="0.3" stroke="#212525"/>
<rect x="1042.5" y="164.5" width="63" height="63" fill="#212525" fill-opacity="0.3" stroke="#212525"/>
<rect x="1110.5" y="164.5" width="63" height="63" fill="#212525" fill-opacity="0.3" stroke="#212525"/>
<rect x="1178.5" y="164.5" width="63" height="63" fill="#212525" fill-opacity="0.3" stroke="#212525"/>
<rect x="1246.5" y="164.5" width="63" height="63" fill="#212525" fill-opacity="0.3" stroke="#212525"/>
<rect x="1314.5" y="164.5" width="63" height="63" fill="#212525" fill-opacity="0.3" stroke="#212525"/>
<rect x="1382.5" y="164.5" width="63" height="63" fill="#212525" fill-opacity="0.3" stroke="#212525"/>
<rect x="1450.5" y="164.5" width="63" height="63" fill="#212525" fill-opacity="0.3" stroke="#212525"/>
<rect x="1518.5" y="164.5" width="63" height="63" fill="#212525" fill-opacity="0.3" stroke="#212525"/>
<rect x="1586.5" y="164.5" width="63" height="63" fill="#212525" fill-opacity="0.3" stroke="#212525"/>
<rect x="838.5" y="232.5" width="63" height="63" fill="#212525" fill-opacity="0.3" stroke="#212525"/>
<rect x="906.5" y="232.5" width="63" height="63" fill="#212525" fill-opacity="0.3" stroke="#212525"/>
<rect x="974.5" y="232.5" width="63" height="63" fill="#212525" fill-opacity="0.3" stroke="#212525"/>
<rect x="1042.5" y="232.5" width="63" height="63" fill="#212525" fill-opacity="0.3" stroke="#212525"/>
<rect x="1110.5" y="232.5" width="63" height="63" fill="#212525" fill-opacity="0.3" stroke="#212525"/>
<rect x="1178.5" y="232.5" width="63" height="63" fill="#212525" fill-opacity="0.3" stroke="#212525"/>
<rect x="1246.5" y="232.5" width="63" height="63" fill="#212525" fill-opacity="0.3" stroke="#212525"/>
<rect x="1314.5" y="232.5" width="63" height="63" fill="#212525" fill-opacity="0.3" stroke="#212525"/>
<rect x="1382.5" y="232.5" width="63" height="63" fill="#212525" fill-opacity="0.3" stroke="#212525"/>
<rect x="1450.5" y="232.5" width="63" height="63" fill="#212525" fill-opacity="0.3" stroke="#212525"/>
<rect x="1518.5" y="232.5" width="63" height="63" fill="#212525" fill-opacity="0.3" stroke="#212525"/>
<rect x="1586.5" y="232.5" width="63" height="63" fill="#212525" fill-opacity="0.3" stroke="#212525"/>
<rect x="838.5" y="300.5" width="63" height="63" fill="#212525" fill-opacity="0.3" stroke="#212525"/>
<rect x="906.5" y="300.5" width="63" height="63" fill="#212525" fill-opacity="0.3" stroke="#212525"/>
<rect x="974.5" y="300.5" width="63" height="63" fill="#212525" fill-opacity="0.3" stroke="#212525"/>
<rect x="1042.5" y="300.5" width="63" height="63" fill="#212525" fill-opacity="0.3" stroke="#212525"/>
<rect x="1110.5" y="300.5" width="63" height="63" fill="#212525" fill-opacity="0.3" stroke="#212525"/>
<rect x="1178.5" y="300.5" width="63" height="63" fill="#212525" fill-opacity="0.3" stroke="#212525"/>
<rect x="1246.5" y="300.5" width="63" height="63" fill="#212525" fill-opacity="0.3" stroke="#212525"/>
<rect x="1314.5" y="300.5" width="63" height="63" fill="#212525" fill-opacity="0.3" stroke="#212525"/>
<rect x="1382.5" y="300.5" width="63" height="63" fill="#212525" fill-opacity="0.3" stroke="#212525"/>
<rect x="1450.5" y="300.5" width="63" height="63" fill="#212525" fill-opacity="0.3" stroke="#212525"/>
<rect x="1518.5" y="300.5" width="63" height="63" fill="#212525" fill-opacity="0.3" stroke="#212525"/>
<rect x="1586.5" y="300.5" width="63" height="63" fill="#212525" fill-opacity="0.3" stroke="#212525"/>
<rect x="838.5" y="368.5" width="63" height="63" fill="#212525" fill-opacity="0.3" stroke="#212525"/>
<rect x="906.5" y="368.5" width="63" height="63" fill="#212525" fill-opacity="0.3" stroke="#212525"/>
<rect x="974.5" y="368.5" width="63" height="63" fill="#212525" fill-opacity="0.3" stroke="#212525"/>
<rect x="1042.5" y="368.5" width="63" height="63" fill="#212525" fill-opacity="0.3" stroke="#212525"/>
<rect x="1110.5" y="368.5" width="63" height="63" fill="#212525" fill-opacity="0.3" stroke="#212525"/>
<rect x="1178.5" y="368.5" width="63" height="63" fill="#212525" fill-opacity="0.3" stroke="#212525"/>
<rect x="1246.5" y="368.5" width="63" height="63" fill="#212525" fill-opacity="0.3" stroke="#212525"/>
<rect x="1314.5" y="368.5" width="63" height="63" fill="#212525" fill-opacity="0.3" stroke="#212525"/>
<rect x="1382.5" y="368.5" width="63" height="63" fill="#212525" fill-opacity="0.3" stroke="#212525"/>
<rect x="1450.5" y="368.5" width="63" height="63" fill="#212525" fill-opacity="0.3" stroke="#212525"/>
<rect x="1518.5" y="368.5" width="63" height="63" fill="#212525" fill-opacity="0.3" stroke="#212525"/>
<rect x="1586.5" y="368.5" width="63" height="63" fill="#212525" fill-opacity="0.3" stroke="#212525"/>
<rect x="838.5" y="436.5" width="63" height="63" fill="#212525" fill-opacity="0.3" stroke="#212525"/>
<rect x="906.5" y="436.5" width="63" height="63" fill="#212525" fill-opacity="0.3" stroke="#212525"/>
<rect x="974.5" y="436.5" width="63" height="63" fill="#212525" fill-opacity="0.3" stroke="#212525"/>
<rect x="1042.5" y="436.5" width="63" height="63" fill="#212525" fill-opacity="0.3" stroke="#212525"/>
<rect x="1110.5" y="436.5" width="63" height="63" fill="#212525" fill-opacity="0.3" stroke="#212525"/>
<rect x="1178.5" y="436.5" width="63" height="63" fill="#212525" fill-opacity="0.3" stroke="#212525"/>
<rect x="1246.5" y="436.5" width="63" height="63" fill="#212525" fill-opacity="0.3" stroke="#212525"/>
<rect x="1314.5" y="436.5" width="63" height="63" fill="#212525" fill-opacity="0.3" stroke="#212525"/>
<rect x="1382.5" y="436.5" width="63" height="63" fill="#212525" fill-opacity="0.3" stroke="#212525"/>
<rect x="1450.5" y="436.5" width="63" height="63" fill="#212525" fill-opacity="0.3" stroke="#212525"/>
<rect x="1518.5" y="436.5" width="63" height="63" fill="#212525" fill-opacity="0.3" stroke="#212525"/>
<rect x="1586.5" y="436.5" width="63" height="63" fill="#212525" fill-opacity="0.3" stroke="#212525"/>
<path d="M1195 567.4C1190.52 567.4 1187.04 564.36 1187.04 555.28C1187.04 547.2 1190 542.56 1196.04 542.56C1200.96 542.56 1203.4 545.36 1204.24 550.44L1201.52 551.08C1200.76 546.88 1199.28 545.08 1196.12 545.08C1191.52 545.08 1189.92 548.72 1189.92 555.28C1189.92 561.92 1191.72 565 1196 565C1200.72 565 1201.88 561.32 1201.92 557.4H1196.36V555.04H1204.64V567H1202V561.8H1201.52C1200.52 564.84 1198.68 567.4 1195 567.4ZM1212.28 567V543H1220.64C1226 543 1228.84 546.12 1228.84 550.76C1228.84 555.16 1225.96 558.48 1220.72 558.48H1215.2V567H1212.28ZM1215.2 556.16H1220.4C1224.36 556.16 1226.04 554 1226.04 550.8C1226.04 547.6 1224.6 545.44 1220.36 545.44H1215.2V556.16ZM1242.92 567.44C1237.56 567.44 1234.76 564.2 1234.76 558.08V543H1237.64V557.84C1237.64 561.92 1238.76 564.96 1242.92 564.96C1246.88 564.96 1248.16 562.44 1248.16 558.04V543H1251.04V558.08C1251.04 564.2 1248.24 567.44 1242.92 567.44Z" fill="#212525"/>
</svg>
